<svg xmlns="http://www.w3.org/2000/svg" viewBox="0 0 48 48">
  <path fill="#4285F4" d="M24 9.5c3.94 0 6.61 1.69 8.13 3.1l5.93-5.93C34.89 3.12 29.87 1 24 1 14.83 1 7.07 6.68 3.91 14.21l6.9 5.36C12.16 13.03 17.6 9.5 24 9.5z"></path>
  <path fill="#34A853" d="M46.15 24.49c0-1.53-.13-3-.39-4.49H24v8.49h12.46c-.55 2.84-2.23 5.24-4.7 6.86l7.34 5.7c4.29-3.96 6.75-9.78 6.75-16.56z"></path>
  <path fill="#FBBC05" d="M10.81 28.93a14.45 14.45 0 0 1-.75-4.44c0-1.54.27-3.03.75-4.44l-6.9-5.36A23.93 23.93 0 0 0 0 24.49c0 3.86.92 7.51 2.54 10.8l7.27-5.36z"></path>
  <path fill="#EA4335" d="M24 47.98c6.47 0 11.89-2.13 15.85-5.78l-7.34-5.7c-2.06 1.38-4.7 2.19-8.51 2.19-6.4 0-11.84-3.53-13.87-8.73l-7.27 5.36C7.07 41.82 14.83 47.98 24 47.98z"></path>
</svg>
